<svg xmlns="http://www.w3.org/2000/svg" fill="none" viewBox="0 0 2000 1280"><path d="m602.4 1259 2 4h-7.3l-2-4zm5.7 0 .8 4h-4.5l-.8-4zm163.7-8 4.5 4h-5.7zm-189.3-4H576h3.6zm779.5-4h-2l1-5zm-764.9-9 1.6 4h4.5l2.9 9 2 4 6.1 4h2l-2.8 4h-2.5l-9.3-4-2.9 4h-6.1l-7.3-4 4.5-4h2.4l1.3-4h3.6v-4h-4.9l1.3-5zm53.6-8-3.2 4h-2l2-4zm2.1 8h-3.7l3.7-8h5.7l.8 4zm684.2-28h2l1 4 3-4h2l-1 4h-3v5l-4-5h-1l-1-4zm-767.5 0 .8 9h-3.7v-5zm5.7-44h-4.5.8v-8h2.9l1.6 4h-2zm1168.8-17h16v9l-3 8h-3l-1 4h-6l-3-8-1-4-3-9zm145 0 3 5 4-5 3 9-6 8h-2v4l-8 4-1 4-3 8-5 4-4 4-3-4h-9l-2-4 5-8 6-4 7-4 8-8 1-4 2-4 2-5zm12-28h6v8h7l4-4 2 4v4l-2 4h-4l-2 8-4 4-4 5h-3l3-9-1-4h-7v-4h4l2-8-2-8-3-4-5-4 2-4 5 4v0l2 4zm-36-49h-1zm-1582.2-27v-1zm-168.2-19h.7zm-81.92 0h-.73Zm1829.32-1v1h-2l1-2zm-596 1-1 1-2-1v-1l1-1 1 1zm593 5v2l-3-2-3-2-2-1-2-2h-1l-2-2-1-2v-1h1l3 2 1 1 2 2 2 1 4 3zm-583-9h-2l1-3h1v1zm-1214.83-8h-.73v0l.73-1zm1809.83-2 1 1h-2zm-1700.9-7 1.5 2-2.2-1zm1697.9 1h-2l1-1zm51 3h-4l-1-2 2-1v-1l1-1h2l3 2v3zm-723-6v-1zm731-4-2 2v0h-3l2-2h2l1-1h2zm-63-1-2 2v0-3zm-926-2h-.8zm921-5.5v1.3h1l1 2.2-2 1-1-1.6v-.8l-1-2.1zM56.78 983.3h-.73l.73-.4h.73-.73zm-40.2-.4.73.4h-.73zm33.62-2.4 2.19 1.6-2.19-.8zm-1.47-1.3v1.3h-2.19v-1.3l1.46-.8ZM1209 974.8v1.2zm28 12.2 1 .8-1 2.2-1 2-1-1-1-1.6-1 .6 1 4v2l-1 2-1 2v2l-1 3-2 8-1 2v2l-2 5-1 3-1 4-1 3-1 5-1 3-1 4-3 1h-4l-2 2h-2l-2-2-4-1v-2l-2-2-1-7v-2l-1-3v-3l1-1v-2h2l1-2v0l3-5-1-2 1-1-2-2v-1l-1-3v-6l2-3 1-2v-1h2l1-2h2l2-1h2l1-1 4-2.2v-1.3l2 .5 1-2.1v-2h1v-3.7h2l2-.8 1-3.6-1-1.7 3-1.2 2 .4v1.6l1 .9 1 4.8 1 3.7v1.6zm248-15.1v-.8zm-285-3.2v1.6l-1-.8v-2.1h1zm534 11.8 2 2.8 4-.4 4 3.6 1 8.5 3 7-1 3 2 3 7 6 6 2v4l3 2 2 7 6 2 1 4 3 3 5 5 3 6 1 10 2 4-2 17-3 9-5 4-4 8-2 4-3 8v8l-3 4h-11l-3 4-5 4-4-4-1-4-8 8-5-4h-5l-6-4-4-4v-4l-3-8h-3l-1-4-1-4-4 4 1-8h1l-1-4-3 4-4 4-3 4h-3v-4l-5-8-1-4-8-4-2 4-6-4h-11l-9 4h-7l-11 4-3 8-8-4-11 4h-5l-5 4h-8l-5-4h-3v-4h4v-12l-4-8v-6l-4-8-1-4-2-5 2-1v-5l-4-8 2-5v-5l4-1 1-3 4-2 7-5 4 1 19-7 3-3 1-3 3-2-1-5 3-3h5l4-6 6-7.7 6-.4 2-3.3 5 5.3 9 2.1-1-3.7 2-4.1 2-1.6 1-3.7 4-1.6h5l3-1.2 1-2.8 11 2 9 1.6v4.9l-4 2.4v2.9l-2 4.4 8 5.5 4 2 3 3h4l2 3 3 2 5-1 3-8 1-6-1-6.5 2-2.9-1-4.5 1-2 2-6.1h3l1 4.5 2 .8 1 5.3zm-202-18.3v-.8zm302 1.6h-2l-2-1.6v-1.3l2 1.3h2zm-222-2.9h-3l-3-2.4h-2l1-2 3-.8 5 3.6zm208-5.2 2 .8h2l2 .8 1 1.2-1 .8-2-.8h-3l-1-1.2zm-1769.8 0v-.8zm1581.8 5.2-3 .5h-2l1-3.7 2-1.2 3-.8 2-1.7 1-2 4-.8h4l-1 2.8-6 1.7-1 .8zm293-9.7v.8l-1-.8zm-96 3.7v1.6l-2-1.6-1-3.7v-.8l1 1.6v1.6zm-212-2.9-3 2-6-1.2 2-2.4h4zm-27 .8-3 .8 1-2.4 1-1.2 2 1.2zm14-.8-11 2.9-1-2.9 2-1.6 3 2.4 2-2.8 5 .4zm32-1.6-4 .8 1-1.2zm-51 .8-2 1.6-3-1.6 3-2zm226 0-1 .8-1-1.6-2-.4 1-.8h2zm10-.8v1.6l-4-2.8-2-1.7 1-.8 2 1.7 1 .8zm-114 0-4 .8 2-4.5 5-1.2v3.7zm-352-4.9v.8l-1-.8zm452-1.6 2 2.4-3-1.6-1-1.6-2-1.2 1-.9 3 2.1zm-273-6.5 4 1.6 3-.8 2 1.2h3l2 3.3 9 .4 3-2.9 2 1.7h1l4 1.2h2l2 3.6 2 .8 4-.8 2 1.7v3.6h-4l-2-1.6-4 .8-4-.8-6-.4-3-1.6-4-1.7-5 .8-5-1.2-5-.8v-1.6l-3-1.2-1-2.5zm266 2.8-1 2.5-2-.8v-2.5l-3-1.2 2-2.4 2 2.4zm-21-6.5v2.1l-7 3.6h-5l-7-2.8v-1.2l5 .4 6-.4h3l1-2.5 3-.8-1-3.7 4 .9 1 2.4zm-513-2h-2l-1-2.4 1-.9zm93-4.5v.8zm427 1.2-3 1.7-1-3.7zm-139-3.6-2 1.6-4-2v-1.6l4-.9 2 1.7zm13-4.1 6 2.1 1 2-1 1.6-4-2h-8l-2-3.3 6 .8zm-303 0h-1zm189 .4-1 2.5h-2v-3.7zm-8-.4-1 1.2-4-1.2-1-3.2h-2v-2.9h4l1 3.7zm-182-6.1h-1l1-.8zm140-3.6 2 4.4-2-.8-1-2zm-135-1.2-1 .4v-.4zm-874.8-.9-.8 1.3-.8-.4.8-.9zm-372.4-.8h-.7zm1565.2.8 1 .9h3l2 3.6-1 1.2 1 3.7 2 1.6 1 2 1 2.5h2l5-4.5v-2.4l3 .8 1-2.9 3-1.6 5 1.6 6 2.9h2l5 1.6 11 4.5h2l3 2h3l2 2.9 4 2.4v3.7l4 .4 3 2.4h2l3 3.7h-5l2 4.4 3 2.9 1 2.8 10 8.1v2.1l-5-1.3h-6l-2-1.6-1-2-6-6.1-1-2-8-2.5-2 .8-5 4.5 1 2-5 2.5-2-1.6-4 .8-2-.8-6-4.9h-5v-3.7l-1-1.6 1-2-3-3.3-2-4-4-2.5-2-.8-6-2h-3l-5-2.9-4-2.4-2 3.2h-2l1-3.2-2-2 1-1.7 2-2-6-2-1-1.7-1-1.6-4-.4 2-3.2 3-.4 3-1.7zm-321-1.6h-1v-.8zm-652.4-.8 4.1.8-.4 2.9-2.5 3.6-8.5 1.6-1.6-1.6v-4l1.6-3.3 4 .8zM482.5 911l-3.2.8v-1.6l1.6-1.3-.8-1.6-.8-1.2h-.4l1.2-.8.8.8v1.2l1.6.8.4 1.7zm-456.4-6.5v.8h-.73zm977.9 0-1 1.6-1-.8 1-1.6zm359-2.1-1 .4-1-.4 1-.8zm160-3.6-1 .4h-1v-.4h1zm-162 0v-.8zm274 2-3 2.9-4 .8-3-.8-7-.9-4 .9-2-.9-3 2.5-1 2 2 3.7 2 2.4 2 .4 3-2.8h3v-.8h4l-2 3.6-3 .8-2 2.9 2 .8 3 4.5-1 2.8 2 .8v2.9l-3 .8-1 2-2-1.2V928l-3-3.2v-4.1l-2-.8-2 2 1 1.7v7.3l-1 4.5-2 1.2-3-1.2 1-5.3v-2.9l-1-2.8-2 .4v-4.1l2-4.4v-2.9l2-3.2 1-7.8 4-.8 1-2.8 10 2 6 .8 3-.8 3-3.6 1 .8zm17-2.8-3 2.8 3-1.6v3.2l3 2.1-6-1.7-1-3.6 1-2.9zm-1523.6-1.7v.9l-1.4-.9h.7zm1228.6-1.2-1 .4v-.4 0zm1-4.4v.8h-1v-.8zm3-4.5v.8h-1v-.8zm-345 .8-2 2-1-.8 1-2h2zm343-5.3v.8zm121-4.4 4 .8h5l2 1.6 2 4.5 5 2.8 5 4.5 1 2h2l3 2.8 4 2.5v2l7 2 1 1.7-1 5.3 1 1.2 4 .8 1 4.5 2 2 4 .8 2 4.5v2.8l-2 11-2-2-4 2-5-5.3h-1l-6-4.9v-1.6l-4-2-4-6.1v-1.2l-2-6.1-3-2.9-1-1.2-3-1.6-2-6.5-1-2.5-5-2v-2.8l-4-4.5h-1l-6-5.3-2-4.1 2-.8zm124 1.6-5 1.6 2 2-5 1.7 1 2.8h-3l2 4.5 2 2-1 2.8 4 2.5 2 2.8h-4l-2 .8-2 2.9v3.6l-2 3.7-3 1.2v6.1l-3 4.5-1 1.2-6 2.4-1-3.2-4-.4-3-2.5-3 2.5h-4v-2.5h-8l-1-3.6v-4.9l-4-3.2-2-2.9-1-5.7 1-3.6 4-2.9 1 2.1 6 .8 1-5.3 2-2 7-1.7 5-5.7 1-1.6h2v-.8l1-.4 2-.8v-.8.8h1l2-1.6 3-4.9 2-1.6 4-.9 2 .9 1 2.8 4 .8zm209-10.2-1 .8v-.8zm-453 .8-1 1.2v-2zm509-3.2v.8zm-182-.4-1 .4v-1.2zm-285 7.3-4 1.2-2-.8-2-4.1v-7.3l2-6.9 1-1.2 3 2 2 4.5 3 5.7-1 3.6zm240-15.5 1 5.7 1 3.7-3 2.4-3-2.4v2.4l1 4.1-1 2.4-2-1.6-4-1.2-2-1.6v-2.9l1-2.4-1-1.2-3-.9v2.1l-2-2.1-2 1.7v-1.7l-3 4.5-1-.8 2-5.3 4-.4 2-3.2 4 3.2 3-4.5 2 .9 2-.9v-3.6zm-9-6-1 3.2-3-.8 2-2.4zm-3-1.3-3 1.3 2-3.7zm-23-.8-3 2.1h-1l3-3.7zM642.6 848l-.8.8v1.6h.8v1.3h-5.3.9l.8-.5h.8v-2.4h-.8v-.8h2.8v-.4h.8zm983.4 8.1-1 1.6-2-2.4-1-2.8 2-.8 1-4.1 2 .4-2 4.5zm-1006.1-8.5h-1.7.9v-.8zm7.3-.8-.8.8h-2.1v-.8h2.1v-.8h.8zm16.2-.8v-.8h1.3l-.9.8zm992.6 2v1.6l-2-.8-2-2.8 3-1.7zm-13 0-4 1.6v-6.5l6 2.9zm-984.8-6.5v-.8l.8-.4v1.2zm-34.6-1.2v1.2l-.4-.8v-.4h-.8.8zm-3.6.4.8.8zl-.4-.4h-.9l.9-.8v.8zm1038 3.2 1 2.9-2-.8-1-2.9-4-2.8-1-1.6h5l2 1.6zm-1042.9-5.2v.8l-1.6-.8.8-.9zm659.9-.9h2v0l1 .9-1 .8-2 .8-2-1.6v-.9zm-604.3-2h-.8l-.8-.8v-.8h.8v.8h.8zm-8.9-.8h-.8v-1.6l.8.8zm1099.2-1.6v1.6l-1-1.6zm-124 4.4-3 1.7-3-6.5h3l3 2zm-974.4-5.6h-.8v-1.7l.8-.8v1.6zm.8-4.5v.8l-.8-.8h-.8l-.8-.8v-1.3h.8v.5h.8v.8zM1746 824v.8zv-.8h1zm-903.1.8-.8.8-1.2-.8.4-1.6zM641 824h-.8v-.8l-.4-.8v-.4h1.2v1.2zm0-3.6h-.8v-.8h.8zm0-2.9v.8h-2l.8.4h-.8v.9l-.8-.9v-1.2h.8v.8h.8v-1.6h.4v.8zm-4.9-2.4v.8zm2.9-1.2h-1.7v-.8h1.7zm195 0-1.2.8v-1.6h1.2zm-200.3-1.7v.9l-.8-.9h-.4v-.8h.4v.8zm-2.9-1.2h-.8Zm7.4-.8v.8h-.9v-.8zm-9.4 0v-.8zm-6.9-.8h.8v.8h-1.2v-.8zm10.6-.8h.4zm-14.3-.8h-.4l.4-.4h.9v.4zm14.3 0h-1.7.9v-.4h.8zm-1.7-.4.9-.8v.8zm-8.1-1.7v.9zh.8zm1.6 0h-.8zm-13.8 0h6.5l.8.9v.8h-.8l-.8.4v.8h-7.3v-.8l.8-.4-.8-.8.8-.9v-.8zm-50 1.7-.8 2-1.2-.8h-2.4l-.4 1.6-.8-.8h-1.7l-2-2h-1.6l.8-1.7 2-.8 5.3 1.7zM1618 829.7l2 .8 2-2 2 .8 1 2.9 2-1.7 2 4.5 2 .8-1 2.9-3-2.9-1-2.4-3-2.9-3 1.7-2-1.7-2 2.5-4-2.5v-1.2l2-1.6-5-1.6-1-5.7 3-2.1v-8.1l1-4.5 3-.8 4 1.7 2 4.8 2 1.7-2 2.8-5 7.3zm240-29.2v.8zm-1323 0-.9.8-.4-.8zm44.6-3.7 5.3 1.6 4.1-.8 3.6 1.6h2.5l.8 2.1 2.8-.8 4.5 3.6-.8 2.5-7.3-.9-3.7 1.7h-2.8l-2.5 2.8-1.2-2.4-1.6-.4h-4.5l-2.8-.8-2.9.8-2.4-.8.8-2.5 2.9 1.6h5.2l.9-2-1.7-.8.8-2.8-3.6-.9zm978.4 6.9-4 3.7-5-1.7-1-4.4 4-3.7 7-1.2 2 2.8-2 1.3zm-1419.3-2.4-2.2 1.6-.7-.8v-1.6l-.8-2.1.8-1.6v-1.2l3.6 1.2.8 2.4 1.4.9-1.4.4zm-4.4-8.2h-1.5l-.7-1.2h1.5l1.4.8zm443.7-2.8-.4.8-.8.8h-2.4v-1.6h3.2v-.8h.4zm-453.2-2.8.7 2h-1.4l-1.5-1.2zm460.5-.9h-1.2.8zm-1.2-.8v.8l-.8-.8zm-466.6-1.2-.8 1.2h-1.4v-1.2l1.4-.8zm461.3-1.6.8.8h-.8l-.8-.8v.8h-.4v-.8h.4zm-4.8-1.2v1.2l-.9.8h-.8l-.8.8v-.8l.8-.8h.8l.9-.8h-.9l-.8-.4h.8zm-1.7 0h-.8l-.8-.8h.8zm-31.3-1.7 3.7 2.9h2.8l6.5 3.6 1.7 1.7 7.7 2 1.6 2.4 2.1.4 3.2 1.7.4 1.6-3.6 1.2-6.6-.8-3.6.8-3.7-.8 2.9-2.8-1.2-1.3-3.7.4-2.4-2-1.3-3.6-2.4.8-4.1-.8-3.2-2.1-6.5-.8-.8-2.8h-3.7l-4 2.8h-3.3l-2.8 2 .8-2.8 1.6-2 4.1-2.5 5.3-.8 8.9.8zm27.7.9h-.8v-1.7h-.8v-1.2h-.5v-.8h-.8v-1.6l1.3 2.4v1.2h.8zm-5.3-4.5-.4.8v-.8h-.8v-.8h.8zm6.9-2.9v.9zv-.8l.4.8zm-17.9-.8v.8h.8v-.8h.8v2.1l-.8.8h-.8v-.8h.8-.8v-.4l-.4-.9zl.8-.8v.8zm13.4 0h-.8v.8-1.6l-.8-.8v-.4h-.8v-.8h.8v.8l.8.4v.8zm-10.9-5.3-.9.9v-.9zh.8zm-2.5 2.5v.8l.8.4H552l-.8.8v-.8h-.8l-.8-.4h-.8l.8-.8v.8h.8v-.8h-.8v-.8h.8v-2.1h1.6v2.1h.4zm1064.6 8.1-3 5.7-3-1.6-2-3.7v-2l5-9 3-1.2 2 2.9zM559.3 765.5l.4.8h.8l.9.8v2.9h-.9v-.8h.9v-2.1h-.9v-.8h-1.2zh-.8v-.8.8zm679.7-2.8h-2V761h1zm-687-5.3v.8h-2.4l-1.2.8h-1.7l-.8-.8h.8l.8.8.9-.8.4-.8.8.8h1.6zm.4-.8h1.6l.9.8.8.8.4.8.8.8-.8.4-.4.8v1.7l-.8-.8h.8v-2.1l.4-.8h-.4l-.8-.8-.9-.8v-.8h-2zm319.8-4.9v.8l-1.6-.8h1.6v-.8zm13 0h-.4l-.8-.8h-.8l.8-.8v-.8h1.2l.8.8v.8zm-8.5-1.6h-.9l-.8-.8h.8v-.4l.9.4zm4.4-2.9v.8l-.8 1.3-.8.8h-.8l-.8-1.2v-.9h2.4v-.8l.8-.8h.4v.8zm11 2.1-.8.8v-.8l.8-.4v-.9l.4-.8v-.8l.8-.8h.8v2.4l-.8.9zm-19.1-2.1-.8-1.6v-.4h.8l.8.4-.8.8zm-503.9-3.6-.8 2-1.4-.4.7-2.4zm525.8 1.6h-.8v-.8l.8-.8h.8l.5-.8v1.6h-.5zm-273-21.1v-.8h.8zm253.9-3.7h2.1l.8.4-.8.8h-.4l-.8-.8h-.9zm797.2-.8-2 2.8-2 7.4-2 1.6-1-3.3-3-2.8 2-2v-2.9l-5 1.2V718l6-4.9 2 2 3 .8zm11-9.7 4 3.6-9 3.7-3 3.6v-3.6l1-4.9 4 .8zm-538-1.3h-3l-3-2.4 4-2 5-.8-2 4.4zm-41-2.8-5 .4-2-1.2h-4v-2.5h3v1.7h8zm-60-5.3v.8zv-.8zm-211-7.3v.8l-.4-.8zm-3.7-5.7h3.3v.4h-3.3l-.4-.4zm220.7-3.2-2 6.9 1 2-1 2-4-1.2-11-6.1 2-2.8h2l3 1.6 8-.8zm-232.9-.4h-2.4v-.9h1.6zm-2.8-1.7v.8h-.8l-.8-.8h.8zm160.9-.8v.8zl-.8.8v-.8zM819.4 683l-2.1-.8-.8-.8zm3.6-.8-1.2-.8.8-.8.4.8h.8zm152.4-1.6-.8-.4v-.8h.8l.8-.8.4.8zm-173.5-3.7h-.8v-1.2l.8.8zm182.8-2.8h1.7v1.6h-.9v1.2l-1.6.9v-.9h-1.2v-1.2h-2.4l2.4-2.4h1.2zm6.1-1.2v1.2l-1.6-.8h-.8v-1.2h1.6zm729.2 28.4-2 3.7-4 1.2-1-2-2 1.6h-3l-2 3.6-5-.8-5 3.7-3 4.5-4-3.3v-2l2-2.1-4-1.6-4 2.1-4 .8-5 .8-5 1.6-2-2.4 4-2.1 6-5.2h3l8-1.3 3 1.3 7-8.2 9-3.6 3-3.7 2-2.8 4-9.4-2-7.3 5-3.6 4 2.8 2 2.8 1 5.3-2 3.7-1 4.5-2 .4v8.9l-2 2.8v2.9zm-701-22.7-5 1.6-2-2.4 1-7.4-2-2.8 4-1.6 2-2.1 2 .9 1 4.4v3.7zm0-21.2-2 5.7-2-1.2-1-3.2v-2.9l3-2.8 1 .8zm725-8.1-2 2-6 .9-2 4.4-1 2.1-8-4.1h-2l-2 2-3-2-1 2 4 2.1-6 3.2 1-3.2-2-2.1v-2.8l6-3.7h2l1-3.6 1-2.9 1-5.3-1-3.6 2-2 6 7.3 4 3.6 3 .4h2zM644.7 631.8h-4.5l-.4-2.8 4.9-3.2zm22.7-10.9v.8zv2h-.8v-.8h.8v-.4l-.8-.8v-.8h.8zm288.9-17.5.8.4zm-1.6-1.6h-.4v-.8Zm-317.4.8-1.2 2-7.3-2.8v-3.7zm-331.1.8 2.2 7.3-10.3-5.3-5.8-3.6-8.8-9 .7-3.6 13.9 5.3 3.7 6.5zm362-7.3 2.1 4.9h6l5.7 1.6-1.6 4.9v7.3l6.1 3.6-2.4 5.3-9.4-5.7-1.6 3.7-3.7-6.1h-11.3l-6.1.8v-2l2.4-6.1 7.3-16.7 2.9-5.3 3.6-2 2.1 3.7zM1892 570.9v2.4l-2-2.4zm-160 52-7 1.6 1-3.6v-4.5l1-2.8-2-6.5 2-6.1-1-8.6 2-5.2-4-6.5 1-9.8v-2.8l6-4.5 2 6.1-1 11 2 3.6 2 10.2 2 6.5-4 .8-2 2-3 11 3 4.4zM80.18 565.2l-5.12 1.6.73-4.4zm183.52 2.9-2.9 1.6-2.9-3.7.7-5.3 6.6 1.7zm680.8-8.2-2 1.7 1.2-2.9zm-849-4-4.35.4-1.46-2.9 5.11-.8zm833.6-6.1v2.4l3.6-1.6h2.5l2.8 5.3v3.6l-3.7 2.1 1.7 10.1-1.7 4.5-6.5 3.6-6.5 3.7-3.2.8-5.7-2.8 4.5-6.9 1.2-4.9-4.1-2.5 1.2-1.2-.8-6.5 7.4.4v-4.8l1.6-2.9zm95.9-1.2v3.6h-3l-1-4.5 2-.8zm-756.1.4-2.2 1.6-2.2-.8 1.4-4.9zm764.1-.4-2 4-2-1.2h-1l-1-4.5 3-1.6 4-2.8 1 .8v2.8zm-770.7.4-2.2 3.2-3.7-1.6.8-3.7v-6.5zM938 538.8l-3.7 2.4.9-3.6.8.4zm-680.1-1.2-3.7 2-.7-6.5 3.7.8zm-8.8-.8-2.2 1.2-2.2-6.5h3zm686.1-6.1 1.2 2.4-2.1-.8-2.8-2.8 1.2-1.7h2.5zm78.8 3.6-2 2.5v-.8l2-3.7h4l3-4.5h2l1 3.7-3 1.6zm54-2.8-3 .8-1-3.7 3-3.6h3l-2 2zM153.3 525l1.5 4.5-10.3 5.6-2.9-4.4 2.9-3.7 3 .8zm99.5 3.6-2.9 1.7-1.5-7.3 2.9-.9 1.5 3.7zm-6.6-2-4.4 1.2-2.2-6.5h2.9l5.2 2.1zm687.3-2.4-2.8 2.4v-5.3l4.5-1.6zm153.5-2.1-2 2.9 1-2-1-3.7 5-1.6-1 3.6zm-135.2-4.4-.8 2.8-4.1 3.7.4 2.4 7.4.4h3.2l.4 2.5-2 5.6-3.7 4.5 1.7 3.7 2.8 1.6 2 2.8.8 4.5 1.7 4.1 3.6 1.6 3.7 7.3.4 5.3 6.1 1.2 1.2 1.6.8 2.9-.8 2.8-3.7 4.5v2l1.7 2.5-1.7 1.2-3.6 1.6-6.5-.8-4.9 1.6-4.5-.8-4.4 1.6-.8 2.9-2.1-1.6-3.6.8-2.5 2-1.2-1.2 4.9-5.3 1.6-2.8 3.7-2.1-1.7-1.6-2 .8-.8-2.4-3.7.8-.8-2 5.3-2.9.8-2.4-.8-5.7 6.5-2.5v-2l-3.6-8.1 1.6-3.7-5.3 2.5-4.5-3.3 3.3-4-2.5-3.7h-1.2l-1.6-3.7 1.6-3.2h-3.2l-1.2-2 1.2-.9 1.6-4.4-1.6-1.2.8-3.7 2.8-1.6v-2.9l.8-3.6 2.5.8zm139.2-2.1-2 1.3v-3.7zm-15-15.4-1 2-2-2.8zm-992.16 3.7-5.12.8-4.39-3.7 6.58-2.4zm848.46-22.8v.8l-1.6-2.4v-.4zm-387.6-2.8-1.6 4.8h-3.7l1.6-6.5zm-18.3-.8-5.3 2 .9-7.7 7.3-1.7 1.2 2.9zm-460.11-9.4-3.66.4-7.31-4.1 2.19-3.2zm465.81-11.8 7.3 3.7-4.4 4.4-8.2-3.6-4.8-.8-7.4 7.3-7.3-11-.8-6.5 2-14.2 3.3-2.8 7.3 9.7 9.4 5.7zm356.3-26.4 1.3 1.6-.9 2.9 6.9 4.5-.8 2 .8 3.6-2.4 3.7-4.9 6.5-2.4-.8-3.7 2.4-2 2.1-8.1 2.8v2.4l-4.5 1.3-8.1-2.1-2.9-2.8-8.1-.8 2.5-2.1-.9-4.4-1.6-2.5-.4-2.8h-6.1l2.5-2 4-.9-.4-2 1.2-3.2-3.6-1.3-2.1.9h-6.5l5.7-9 2.1-3.6h3.2l2.9 2 3.6 6.1-1.6 2 6.1 2.5.4-3.3-.4-4.1 4.9 4.1v-4.1l2.8-1.6 5.3.8 2.8 2.1.8-2.9 2.9.8 1.6-2.4-.8-2 2.8-.9 1.7 3.7zM565 413.7l-6.5 2.4-3.6-6.5 4.4-8.9 7.3.8.5 8.5zm487-13.9-4 .9 3-5.3v-2.1l5-.8v4.5zm-2-7.3-1 4.5-4-.8 4-4.9zm183 0-5 2.5-3-3.3 3-7.7 3-.8 4 2.8zm-169-8.5-1 4.1-5-1.3 4-5.2zm-606.7 8.5-3.6 6.1-6.5-1.6-9.4-4.5 3.7-10.1 3.7-5.3 10.1 9.7zM1872 378.7l-2 2.9-6-3.7 3-2.8zm-1184.7 5.7-5.3 2.4-2.8-4.4-5.3-2.1.8-7.3 2.9-3.2 7.3 3.2 5.3 4.9.8 3.7zm603.7-6.5-4 2.4-4-3.2-4-5.7 4-3.7zm-462.7-11.8-9.3 2.5 4-7.4 4.5-.8 2.8-2.8 2.5 7.3zm1111.7-7.7-8 2-3-1.6-7 3.7 1-7.3 6-4.9h9l4 4.4zM473.6 378.7l2 2.9 3.7-1.3 3.6 4.1 2.5 7.3-1.6 6.9 2.8 2.9 2.4-10.2 2.1-4.5 6.1 4.9 2 8.1-2.8 4.5.8 5.3 4.8 6.5 2.5-2.8 4.9-9 .8-9.3 4.4-4.5-2.8-5.3-.8-8.1h6.5l8.9 4.5 7.3 7.3.4 6.5-3.6 3.6-2.9-.4 2.5 7.7 4 6.1-1.2 6.5-8.1 5.7-4.5 5.3-8.1-1.6-.4-3.7-6.1.8 3.7 4.5-2.9 5.7-5.3 5.3h-2.8l-9.4-8.1v2.8l3.7 5.3 7.3.8 3.7 1.2-5.3 12.6-4.5 2h-7.7l.4 4.5-3.7.8.9 5.7-8.2 6.1-7.7 11-3.6 8.1-2.5 10.2v8.5l1.6 3.6h7.4l3.6 14.7-.8 3.2 7.3-2.4 12.6 3.6 4.9 4.5 2.4 3.7 9.4 3.6 2 2.1 4.5 1.6 2.8-.8 9 2.8-.9 6.9 1.7 4.9-.8 7.3 5.2 7.3 3.7 2.9 1.2 3.6 3.7.8 2.4-3.6 2-1.2 2.1-5.3-2.1-4.5-.8-9.3-2-7.3 8.1-4.5 3.7-2.9 3.6-7.3v-7.3l-3.2-9.7-7.3-6.5 6.9-11.8-5.3-11.4 2.8-3.7-1.2-5.2-.8-8.2 2.8-2 9.4 2.9 6.9.8 4.1-2.9 8.1 7.3 2.8 6.5 8.2 2.1 2.4 4.4v12.6l1.2 7.3 3.7-.8 6.5 7.3 7.3-6.1 3.2-3.6.4-6.5 3.7-6.5 3.7 3.6v4.5l3.6 3.7 4.5 8.1 3.6 8.5v9.8l2.9 6.5 5.3 1.2v3.7l2.8 3.2 3.7-1.6 1.6 3.6 5.7 1.7-4.5 5.7-7.7 2.8v3.7l11-8.2h2.8l2 4.5 5.3 1.6 2.1 3.7-1.3 3.6 1.3 5.7-6.6 6.1-4.4-.8-4.5 2-1.2 3.7-6.1 4.5-7.3.8-13-.8h-13.8l-3.7 3.6-1.6 4.5-4.5.8-4 3.7-5.3 7.7 9.3-6.5 8.1-3.7 6.5-1.2 4.5.4 2.5 4.5-3.3 2.8-5.7 2.5 1.6 2.8 4.1-1.6-.4 3.6 2 8.2 5.7 4.4 5.3.8 2.8-1.6 2.5.8.4 4.5-8.5 2.8-7.4 3.7-3.6 4.5-3.7 1.2-2.4-2v-4.5l3.2-2.9 3.7-2.8-2.4-2.4-7.4 3.2-2.8-1.6v4.5l-7.3 2-4.5 3.6-3.6.9-3.7 5.6v3.3l2.4 6.5-6.1 2-8.1.8-6.5 5.3 1.6 1.2-.8 4.5-3.6 5.3-1.6 2.8-2.9 4.5h-3.7l-.8 3.7 2.5 2.8 1.2 7.3-2.9 5.7-7.3 3.7-2 2.8h-2.8l-3.3 4.5-9.3 7.3-2.9 7.3 1.2 6.5 3.3 7.3-.8 1.6 3.6 8.2v6.5l-2.4 4.4-2.8.4-1.3-4-2.4-.8-1.2-6.1h-2.5l-2-5.7 1.2-5.7-5.7-6.9-2.8-1.2-6.1 2.8-4.9-5.3h-4.4l-3.7 1.7-5.7-.8-2.4 2.8-7.3 5.3-2.9-.8-3.6-3.7-2.1 1.6-7.3-1.6-4.5 1.6-6.1 4.9-7.3 4.5-2.8 6.1 2.4 6.5-.8 2-1.6 2.8-.8 4.5-.4 6.1v2l-.8 1.7 1.2 5.7.8 1.6 1.6 4 2.9 3.3 1.6 1.2.4 2.9.8.8 1.6 2.8h3.7l2 1.6 1.6 1.7 3.7-.8 1.2-.9h3.7l2.4-1.6h2.9l.8 1.6h1.2l1.6-1.6-.8-1.2 2.4-1.6.4-.8.9-2.1 1.6-1.6-.8-.4.8-3.7v-1.6l1.2-.8 2.4-.8 2.9-.4 2.8-.8 2.9-.8 4.4 1.6 1.7-.8.8.8v1.2l-.8 2.4-1.7 1.3-.8 1.6-.4 2-1.6 1.6h2l-2 6.5h-2.8l1.2.9v1.2l-1.2 2.4.8 1.2-.8 4.5-.9 1.6-1.6.8-.4 2.1 1.2.8.8-.8 1.7.8 2.8-1.6.8.8h.4l2.5.8 2.8-.8 3.7-.8 1.6.8 2-.8 2.1.8h2.4l1.2 1.6-.4.4.4.8 3.3.8 1.2.8-1.2.8 1.2 3.7-1.2 1.2-.8 2.9v6.1l-.9.8v2.8l-.8 2.1v1.6l.8.8 1.7 2 1.2 2.9 2.4 1.6.4.8 1.7.4v2.4l1.6.9 1.2-.9 1.6 1.3h1.2l2.5-.4.8-.9 2.8-1.6 2.9-1.2h2.8v.4h2.5l2.8.8 2 2.5 1.7 1.2 3.6 2.8v-2.8l4.5-4.5h.4l1.6-5.7 2.9-3.6 2.4.8 2-1.6h4.5l9.3-5.7.9 2.8-2.9 1.6 1.2 4.1-2.8 5.3 3.6 4.4 2.5-1.6v-2.8l-2.5-4.5.9-2 7.3-2.5-1.7-2 1.7-2 2 4h3.7l2.4 1.7 1.2 3.6 10.6-.8 2 2.4 5.7.5 3.3-2.1 7.7-1.6-.4 2.4 2.8 3.7 2-1.6 2.5.8 3.6 2-3.2 5.3 3.6-.8 3.7.8 4.5 2 3.6 3.7v2.4l2.9 1.2 4.4 4.5-.8 2.4.8-2.4h10.2l.8-.8 6.1 1.6-1.6 2.1 1.6-2.1 4.9 1.6 5.3 4.1 2 3.7 2.8.8v3.6l3.7 7.3 2.4.9v2.8l-4.4 5.3-2.9 2-3.6 7.3 6.5-3.6v2.8l.8 1.6 4.4.9h4.1l3.7-2.9 1.6-3.6 4.5-.9 3.6 2.9 9.4 2.8 2.4 3.7 2 1.6 2.9-1.6 5.3 2.4 6.5 1.2 6.5-.8 8.1 4.5 7.3 6.5 2 .8h3.7l3.2.8 1.3 2.1 2.4 8.9v3.7L780 954l-6.5 8.2-2.9 2.4-3.6 6.5-3.7 4.5-2.4.4-1.3 3.2.8 2.9-.8 2.8.8 7.1-1.6 7-.8 4-1.2 2-.8 6-3.7 8-2.4 1-1.2 4 .8 3-5.3 3-1.6 2h-13l-.8 2-5.7 3-6.1 3-5.7 4-2.9 5v11l-1.6 5-2.8 2-3.7 6-.8 3-2 1-2.5-2-2.8 5H691l-1.7 8-2.8 9h-3.7l-3.6 8h-11l-5.3-4h-6.5l.8-13-2.4 9 .8 4 6.1 8v0l1.2 4 2.5 4v0l-4.5 8v0l-8.1 4-9.4 4h-6.9v4l-2 4 .8 4h-15.4l1.6 8h6.5v9h-5.3l-3.6 4 .8 4-2.9 4-6.5 4-3.6 8 1.2 4h3.6l5.3 4v0l-1.6 4-5.7 4-3.6 8v4l-6.1 4-1.3 4 .9 8 2.8 4h-7.3l-5.3 4-.8 9h-6.5l-1.2-4h5.7v-5l-5.7 5H578v-5l-3.6-4h.8l-3.7-12h.8l-1.6-8v-12h1.6l.8-4h-4.4l3.6-8h-5.2l-2.1-4 3.7-4h3.6l1.7 4 1.2-4 .8-8h3.6l.9-4h-2.9l.4-4-.4-4h2l-.8-9h1.7l-1.7-4-2 4h-2.4l-1.3-8 1.3-8h1.6l.8-4-1.6-4-.8-8h2.4l1.2-4 2.5-8 2-4 .8-4 2-4 1.7-9-1.7-8v-4l1.7-3-.9-6 1.7-3 1.2-8h.8l2.4-11-.8-3v-10l1.2-1 .9-8-.9-4 .9-4-1.3-10-5.2-3-.9-3-19-9.6-4.1-4.5-2.5-2 .9-4.5-5.7-9.7-2.5-2.1-5.7-14.6-2.8-3.6-2.4-4.5-2.1-2-6.1-2.9 1.7-3.2-2.1-4.9.4-2.5 4.5-4 .8-3.7-3.6-2.4.8-3.7 1.2-6.5 3.2-2.8-.8-3.7 6.5-2.4.8-.4-.8-2.5 1.7-3.6 4-1.2 3.7-5.3-1.2-1.6v-2.9l-.9-8.5.9-2.5-2.9-3.6-1.6-1.2-1.6-3.3h.8l.8-1.2-1.6-.8v-.8l-2.1-1.2-1.6-.9h-1.2l-1.6 1.3-.8.8-2.1 1.6h-.8l-.8 1.2 2.4 2.5-1.6 2h-2.8v-1.2l-3.7-1.7-.8-2h-2l-.8-.8h-2.9v1.2l-.8-.4-2.8-1.6-.9-.8.9-1.2-.9-.9-1.6-1.6-1.2-.8-2.4-.4-.4-2.4-1.7-.8-.8.8 1.6.8v.8l-1.6.8-.8-1.6-1.2-.8-.8-.8-.8-1.3 1.6-1.6-.8-2-.8-1.6-3.7-2.1-1.2-2.8-.8-.8-3.7-2.9v-.8h2l-2-1.6-.8-.8-.8 1.6h-4.5l-2.8-1.6-2.9-.4-1.6-.8-2.8-1.7-2.1.8-1.6-.8-2-1.2-2.9-1.6-5.3-5.3-2.8-2.8-.8-.9-1.6-.4h-2.1l-1.6-1.6-2.8 2.9-1.3.8-2.4.8h-3.7l-1.2-.8-3.6-.8-1.7-1.3-2.8-.8-.8-.8-5.3-1.6-.4-.4-6.9-2.5-2.8-2-1.3-1.6h-1.6l-2.8-.8-4.5-1.2-.8-2.5-3.7-2-1.2-.8-2.4-.8-2.9-3.7-.8-2 2.4-.8v-1.3h-1.6l2.1-2.4v-1.2l-1.3-1.6-.8-1.7v-2l-1.6-2-2.8-3.3-2.1-2.8-1.6-1.2-2-2.5-1.7-1.2-1.2-.8-1.6-2.9-2.2-1.6h-1.4l-2.2-2v-1.6l1.4-2.1-1.4-1.6-2.2-.8-.7-1.2-2.2-.8-.8-1.7-.7-1.2-2.2-1.6-2.2-2.9-1.4-.8-.8-2-1.4-.8v-1.6l-2.2-2.9-.8-1.6v-1.2l-2.2-3.7v-2.8l-2.9-.8v-1.7h-2.9l-2.2-1.2h-.7l-.8 4.5.8.4.7 2.8v2.5l1.5 2h.7l2.2 2.4 1.4 2.1 2.2 2v1.6l1.5.8.7 2.1v.8l.8 1.6 1.4.4.8 1.6 1.4 2.9 1.5.8 1.4 2v2.5l3.7 6.5v2l1.5 1.6.7-.8 2.2 1.6.7 2.1 1.5 1.6v1.2l-2.2 1.6H380v-2l-.7-1.6-2.2-.8-2.2-2.1-2.2-1.6-2.2-2-.7-.8-.7-.8.7-2.1-.7-2.4-.8-2.9-2.2-.8-2.9-2.8h-1.5l-1.4-1.2-3.7-1.7v-.8l-2.2-1.2 3-1.6 1.4-.8v-2.9l-4.4-5.2-1.4-.5-3-2.4-.7-3.6-.7-1.3v-.8l-1.5-1.6v-1.2l-2.2-2.5.8-1.2-1.5-1.6-.7-1.2-.8-1.7-2.2-5.2-5.8-4.9-5.1-2.4h-4.4l-1.5-4.1-6.6-8.1v-4.5l-2.9-1.6-3.6-8.6-3-2.8-.7-6.9-2.9-2.9 1.4-7.3-2.2-10.9 1.5-6.5 1.5-10.2v-13.8l-3.7-9 2.9-1.6 9.5 2.5-.7-6.5-1.5-1.7-2.9-1.6-8-6.5.7-2-3.6-2.5h-4.4v-3.6l-4.4.8-4.4-2.8-.7-9-5.9-12.2-2.2 1.2-3.6-4.8-.8-6.5 1.5-5.3-2.2 2.8-2.9 1.7v-9l-5.2-4.9-5.1-7.3-3.6-1.6-.8-6.5-2.2-2.8-.7-.9-2.9-2.8h-3.7l-6.5 2-8.8-8.9-10.3-6.5h-3.6l-9.5-3.7-6.6.8-12.4-6.5-4.4-4.4-5.9 5.3-1.4 6.5h-6.6l-3 4.4-8 3.7-.7-6.9 2.2-4.1v-5.3l5.8-3.6-1.4-2.9-4.4 2.9-4.4 5.7-1.5 4.4-8 7.3 4.4 6.1-4.4 3.7-.8 3.7-10.9 6.5-1.5 4.4-5.1 1.2-5.9 8.2-7.3 2-4.4 3.3-5.1.4-2.9 3.6-3.7-1.2 6.6-6.5 3.7-.8 6.6-6.1 4.3-2 6.6-9 1.5-7.3-5.9-4.1-2.2 4.1-2.9-4.9-5.1-1.6-7.3 3.7.7-8.6-4.4-5.3-5.8 2.1-7.34-5.7-1.46-2.9 4.39-2.4-8.78-7.7v-3.3l7.32-9.3.73-5.7 2.19-1.6 4.35 2.8 3.7-2.8 2.2-3.7 5.8.8 2.2-2.4-.7-6.5-2.9-2 2.9-5.3-6.6 1.6-2.2 2-6.55-.8-6.59 1.7-5.85-1.7-2.92-4.8v-4.5l-4.39-.8-2.93-2.9 13.17-9.3 5.85-3.3 3.66-.4.75 7.3 9.5.4 1.5-5.6 7.3.8v-2.9l-8.8-1.6-2.9-3.7-7.35-1.6-1.47-7.3-13.16-10.2 1.46-7.3 10.97-1.2 5.85-6.9.7-5.7 5.9-8.9 5.8-.4 5.9-6.9 8.8-.4 6.5-7.4 9.6 2.1 2.1 5.3 7.4-1.7 4.3.8-.7 4.9 18.3.8 8 5.3 9.6.8 5.8 2.9 8-2.5 5.2 3.7 6.5 3.7 10.3 2.4 2.9 3.6 10.3 5.7 3.6-.8v-3.6l5.1-3.7h3l.7-2.8 2.9 2.8h2.9l2.2-4.1 5.1-1.6 8.1-5.7 4.4 2.1 3.6 3.6 3-2.8 1.4-10.2 5.1 5.7 2.2 7.3 3 4.5 2.9 1.2 1.5-7.3 3.6-2.8 2.2 10.1h3.7l2.2-5.7 5.8-.8 5.9 2.9 3.6 3.6 8.8 3.3 3.6 2.8 7.4 2 2.2-2 5.8 2 5.1 6.1-5.8 6.5 4.4 3.7 10.2.8 7.3-1.6 5.1-2.9 2.2 3.7 5.9 1.2 3 4.5 1.2 5.3 2.9-.9-3.7-9.3-2-13.4 8.9-2.9 2.1-2 4.4 3.7v4l4.5 2.5.4 2.8h5.3l3.7 2.9 6.5 2.4 5.2-2.4 12.2.8 4.5 2.8-.8-5.7-2.9 1.2-2.8-6.5 8.1-1.2 6.5 4.9 5.7.8 6.9-6.5.4-5.3-3.6-2.8V384l-7.4-5.3-4.8-5.7 1.2-6.9-1.2-3.6v-7.8l6.5-7.3 4.4-2.4 6.5 6.5 2.1 5.3-.4 5.3 4 3.6 3.3 7.3zm1186.4-41-4 2.8-7-5.7 1-3.6zm-811.4-4.5-.4 6.9-10.6-8.1-.4-4.5h7.4zm-489-11v8.2l5.1-5.7 9.5 4.9.7 6.1 5.9-3.7 1.4-5.3 5.1 5.3 3 11 2.9 3.6-3.7-24.8 8.1-2.4 6.5 6.5 2.9 14.2 3.6 9.4-1.2 8.9 3.7 4.9 15.8 9.7v7.3l-4.9-1.6.4 11.8-9.3 2.8-8.9-1.6-6.5-4-10.9 3.6-2.2 2.9-12.4 3.6-11 .8-2.2-10.9-8.8-.9-6.5-2.4-3.7-5.7.7-5.3 13.9-3.6 9.5 2.4 3-4.5-9.5-3.6-6.6 1.6h-12.5l-3.6-16.2-5.1-5.7 3.6-10.6 5.9-7.3 14.6-8.5zm484.1-2.8-6.1 4.5-7.3-2.9 3.3-3.6 4-.8zM1263 343l4 11.7 6 6.5v4.9l-5-.4-4-2.4-1 2.8-4-3.6-2 .8-5-12.2h-8l-2-4.5 2-5.3 6-4.8-1-9 3-5.7 9-5.2 8 3.6-1 8.1-4 6.5zm87-22-9 2.9 2-8.2 4-.8zm302 7.3-10 4.9 1-4.9v-2.4l2-2.8 1-8.6 5 1.2 6 9zM536.6 310.9l7.3 2 6.5-.8 5.3 2.8 4.8 7.3-4.4 5.3-6.5-.8-4.5 2.5-4.1-2.5-1.6-6.5-3.6-2zm-126.8 3.6-3.6 11.4-6.5-8.5-.9-6.1 7.4-.4zM1643 328.3l-2 8.6-7-6.5-9-3.7 2-5.7-1-6.5 4-1.6 2-3.7 7 6.5 4 1.7 2 5.7-3 2.8zm-1138.1-1.6 4.5 16.3 3.6-6.5-2.8-10.6 3.6-7.7 11.8-7.3 6.5.4 2 8.1 3.7 3.7 2.4 13.4 5.7 1.2 8.1-8.5 12.6 4 4.9 11.8 3.7 1.6-.8 8.1 6.1-6.9 5.6 3.3 5.3 9.3 11.8 5.7 5.7 9.8-4.5 2.8 2.5 18.3 3.6 1.6.4 4.9 3.7 1.6 6.9-.8 4.1 5.7 2.4 11.8 3.7-2h6.5l2.8 4.4-6.5 8.6-.8 5.2-3.7-.8-1.2 8.2-7.3-3.7-6.9-12.6-5.7-1.2-.8 8.5 2.4 7.3 9.4 7.3 1.6 16.3-1.6 7.3-4.5-5.3-8.5-.8 7.7 9.8-.4 4.4-12.6-4.4-5.7-6.1h-3.3l-7.7-4.9.4-6.1-4.8-2-4.5-9-3.7 3.3-5.7-.8-8.1 2-8.1-4.5 4.5-10.9 6.5 2.4 8.1-.8 4.9-5.3-4.1-4.9 7.3-8.1 4.1-7.3-3.7-13-7.3-5.3-2-5.7-4.5.4v-4.9l-11-8.1v-6.5l-5.7.8v3.7l-13.4-3.3-7.3 3.7-13.8-3.7-2.8 1.7-5.3-5.3h-7.7l-6.9-7.7-2.1-8.2-1.6-10.9 2.4-11.8 3.7-11.8 6.5-8.1 5.7-2.9 8.9.8zM1734 314.9l-2 6.1-8-2.4-4-2 2-9 4-.4zm-1299.8-7.7 3.6 3.7 11-2.5-3.6 15.5 7.3 5.3 1.2 5.6-2.9 10.2-5.6 2.8-3.7 6.9-3.7-1.6-2.4-6.5-4.9-7.3-6.1-2.4-4.8-7.3 3.6-6.5 3.7 6.5 4.9-.4v-11.8l-3.7-7.3zm31.3 32.9-5.7 2.9v-9l-2.5-4.4v-18.7l2.5-5.3 8.5-2.9 6.9 3.7 11 1.2-5.3 10.6-3.6 9.3-7.4.8zM1721 305.6l-3 2-2-5.7 5-1.6zM320.8 295.4l7.3 5.7h12.4l3.7 3.7 8 10.9-20.4 15.5-.8 5.3-4.4 3.6-2.9 11-13.1 7.7-1.5-4.1-3.7-6.9-6.5-4.8-3.7.8 2.9-9 2.2-2 .7-9.7 3.7-7.4v-7.3l-2.9-9.3zm1252.2 2.9-2 5.7-7-3.7 2-5.7zm-701.6-13-4.5.4v-7.3l4.5-.4zm888.6-8.2 2 4.5 7-.8 3 7.3-5 2.1h-8l-11-9.4 3-3.7zM467.9 293h-4.5l-10.9-7.3 4.4-11 7.4-1.2 4 6.5.8 8.1zM1714 267l4 2.8 3-5.2 4-2.1 4 4.9 7 .8 7 6.5-4 10.6-7-2.5-5 2.9-10 3.2-3-3.2-2 6.9-6-2.5-7-10.1 2-13.8 9-6.5zm-1269.7 8.5.9 9.8h-13.4l-.5-8.2-11.7-2.4 4.8-15 8.2-9.8 13.4 2.9 1.2 8.9.8 9.4zm-55.5-14.6 7.2 6.1 6.5-2.4 2.4 7.3-4.4 13.4-5.3 2-8.6-2.8-3.6 4.4h-4.4l-6.6 7.3-7.3 2.1-8.1-5.7 8.8-6.1H350l-9.5-4.9 4.4-19.9 9.5-8.9 4.4 6.9 5.9-.8 4.4 9.3 4.3 4.5 13.2 2-3.6-5.7 1.4-6.5-5.8-4.4 5.8-11.8 4.4 1.6zm944.2-2.8-8 5.2-28 14.7-7 7.7v4.5l-5 2.4-3 8.5-6 3.7 1 4.4-6 11-10-3.6h-4l-2-6.5 7-7.4 2-9.7 5-1.2v-4.5l3-9.3 7-4.5 4-6.1 5-2.8 9-7.4 4 2.9 9-2.9 13-12.1 5-3.7 6 1.2 2 3.7v6.1zm-865.1-14.7 3.7 7.3 8.5-2 2.4 13-.8 5.7 4.9-2 10.6 9.3 4.8-2 4.5 4.4 13-8.9h9l10.9 4.5 4.5 5.3-.8 7.3-3.7 9.3-8.1 2-8.5-2.8-4.5 2.4-18.3.4-8.1-2.8-4.5 1.6-8.1-2.4-4.9-11.4 2-8.1-4.4-13.8-10.2-1.6-5.7-2.9-5.3-11.8 6.1-3.6zm-120.8 8.2-7.3 6.5-5.8-3.7-4.4 11.8h-15.4l-2.9-3.7 2.9-6.5 4.4-1.6 8-13 8.1-8.1 9.5.8 5.1 14.6zm1194.9-8.2-6 9.4 8-.4v-4.5l17-.8 9 10.1 3 1.7 3 8.5-2 4.5 1 8.1-4 5.7-4 2.4-2 4.5-10 5.7-1 3.6-4 2.9-4 7.3-6 .8-5 9.3 8-.4 13-6.9-3-5.7 4-3.6 9 5.7 4-.4 4 4 9-3.6 11 2.4h7v7.3l7 2.9 11 2.8 8 2.9 7 1.6 7 6.5 8-1.2 9 13.8 3 7.3 6 5.7 3-2.1 6-17 3 5.3 7 3.6 7-4.4 4 .8 5 4.4 3-4.4 4-.8 3 2.4 3-.8-2-6.5 2-5.3 6-8.9 3-.4 10 1.2 8 4.4-1 3.7 13-2 6 .4 7 3.2 2 2.9-2 5.7 10 6 6 7.4 5-.9 12-3.6 11 .8 9 6.5 3 6.5-3 5.3 7 4.1 3 3.6 4-3.6 10-2.1 2 2.9 13 1.6 5-4.5 3 3.7-1 3.6 6 3.7v3.6h6l3-3.6-2-8.1-1-8.2 12 2.5 2 1.2 16-.4 14 9.3 3 .8 4 3.7 3 1.2 3 2.5 1 2.8 2 1.6 16 11 3 12.2 2 2.4 2-2.4-2-3.7 3-1.2 6 2.9h3l10 10.1 3 .8-5 3.7v2.8l-2 .8-5 .9-2 2.8v2.8l-2 2.1-1 3.6 3 .8-4 2.9-5-1.2-3-3.7-4-1.6-3-2-1-6.1-5-2.1-3 1.7-4 .4-3-4.9 2-4.5-6 .8-1 2.9 3 4.4-2 4.5-2 2-3 2.9-3 1.6h-7l1 5.7 3-1.2 2 4.9v6.5l4 3.2 1 4.9-3 4.5-9-2.9-1-2.4-5 5.3-9 5.6-3-.4-11 11-7 4.9-1 5.3-4-5.3-7-2.1-7 2.9-4 5.3v-6.9l-6 4.4-8 .8-4 11-4 5.3v6.5l3-1.6 3 2.4-3 3.7 1 5.7 2 .8v4.8l-4-.4-3 1.3-2 4.4v10.2h-4l-5 3.6-2 8.2-5 4.4-2 7.4-8 8.1-1-4.5-1-6.1-2-5.7-2-22.7v-6.5l2-6.5 4-3.7 5-9.7h2l8-7.8 2-3.6 5-4.5 5-8.9 8-4.5 4-11 1-10.1-5 1.6-2 8.5-12 11.8-5-5.7-2-6.5-10 .4-4 3.3-5 8.5-4 4.5-5 5.3 1 7.7-5-1.2-3 3.6-3-1.6-5-5.7h-4l-5-1.6-3 2.4-8 2.9-10-2.5-13 .8-4 1.7-4 5.7-6 4.4-1 4.5-2 .8-11 11.4-4 6.1-11 10.1 3 2.9h6l-1 6.1 3 3.6 7-.8 1-4.4 5-1.7 9 9.8-2 1.2 2 7.3-4 7.3-1 6.9v7.8l-1 9.7-5 4.9-4 6.1-1 3.6-4 5.7-10 11-3 6.5-7 4.5-5 .8-3-2.9-8 3.7-1 2.8h-2l-4 5.3v4.9l-7 5.3-4 2.8v3.7l4 3.6 2 3.7 3 5.7 1 3.6v7.3l-1 3.3-4 1.2-2-.8-5 2.4-5 .8 2-10.5-1-4.1 2-1.6-1-4.5 1-1.2h-7l-4-2.4 3-6.5v-2.1l-5-2.4v-2l-2 2-5 .8-7 3.7-1-2.1 4-7.3-2-1.6-4-1.6-4 5.3-5 2-2 5.3h-7l-1 5.3 2 1.2h5l1 2.4v3.7l2 1.2 7-4.9 4 2.9h6l-2 4.4-2-.8-4 1.2-3 3.7-2 .8-3 2.8-3 5.3 6 2.9 4 8.9-1 2 4 3.7-3 1.6 3 2.9 2 2-5 2.4 5 6.5v2.1l-7 8.9v2.8l-3 2.9-3 .8 1 2-3 8.2-11 8.1-3 3.6-5 1.7h-6l-1 .4-1 1.6-2-1.6-1 2.4-10 3.7h-4l-4 2.8 2 3.7-3 .8-1-3.7v-3.6l-3 .8-3-3.3-4 2.5-3 2.8-2 .8-2 3.7-3 2-2 5.3 1 2.8 4 2.9-1 .8 5 5.3 2 2 6 6.5 3 8.1v6.5l-1 5.3-1 2.1-9 4.4h-3l1 2.1-2 3.2-5 2-2 2.1-2 .8v-4.9l1-3.2-3-1.3-3-1.6-6-4.9v-2.4l-3-1.2-3-2.5h-5l1-4.4h-5v6.9l-5 10.1v3.7l2 2.8 2-.8 1 3.7 1 .8v3.6l-1 1.7 6 3.6h2l3 2.9 6 4.9 1 3.2 1 2.8-1 2.9v3.6l2 2.1 3 6.9-5-.8-7-3.7-4-2.8v-3.3l-3-2.8v-4.9l-2-1.6v-5.3l-2-2-2-2.1-2-4.4-3-2.5v-1.2l-3-1.6 1-2.9 2-6.5-1-1.6 1-1.2V835l-2-2.8-3-6.6v-3.2l-3-9.3-2 2-6 3.6-1 2.5h-3l-4-1.6 2-8.6-4-10.5-2-3.7-2-.4-1-2.4-2-.9-1-2-3-8.1-2-2-2 1.2-4 4.4-2-.8-4 1.7-4 .8-3-1.7-4 1.7-1 2v2.8l-3 3.7-4 1.6-4 2.9-4 5.3-4 4.4-5 2.1-1 2.8-3 1.6h-2l-2 2.9-4 .8-1 3.6 1 4.5 1 4.9-1 4.5-2 2.8v9.7l-2-.8-3 4.5 1 1.2-5 2.5v2.8l-3 1.2-3-1.2-2-2.8-2-6.9-3-7.4-5-7.7v-5.3l-3-4.4-4-8.2-1-5.6-2-9-1-6.5 2-4.9-2-2.4-1-4.5-3 4.5-5 2.8-2-.4-8-6.9 1-2 4-1.6-5-1.2-3-2.5-2-3.6-4-.4-2-3.7-2-1.6v-2.1l-2-1.6-9 .8-5-.8-1 1.6-6-.8-3 1.2-1-.4-1 .4-11-2-6-.8-5-1.2-2-6.9-4-1.2-3 .8-5 2.8-5-.8-6-4.5-1-1.2-6-2.4-2-6.5-5-5.3h-8l-3-.4v3.6l3 4.9 1 3.7 4 5.3 3 2v4.5l4 7.3v-4.5l2-2.8 3 .8v4.8l-2 3.3 2 1.2 2 2.5 4-1.7 5 .8 3-1.6 9-10.1 1 2 1 4.5 1 2.8 3 3.3 8 1.2 6 8.9-2 4.5-2 1.2-3 4.5-2-.8-2 4.4v4.5l-4 .8-1 1.2-3 3.7h-3l-2 1.6-1 3.7h-5l-5 2-3 .8-3 2.9v2.4l-4 2-5 .8-7 2.9-2 2.8-4-.8-3 3.3-4 .4-6 .8-4 2.8-4 .8-3-.8-4-15.8v-3.7l-2-6.1-4-2.8-2-4.5v-2l-4-5.3-4-2-3-4.5v-8.1l-4-7.3-4-2.1-3-3.6 1-2.1-3-4.4-3-4.5-4-7.3-4-2 2-6.9v-1.3.8l-5 10.2-4-5.3-1-2h-3l5 6.5 2 7.3 8 14.6v4.5l2 3.7 3 1.2 3 3.2 1 4.9 2 11.8 4 5.3 2 .4 2 3.6 3 10.6 2 .4 3 2.4 4 2.1 2 3.6 4 2.5v2l4 2.8 2 3.7-1 2.8 5 5.3h5l3-2 5 .4 4-2h3l11-2.1 4-2.4 3 .8-1 3.7 1 4.4h-2l-1 4.9-3 5.3-2 2.8-3 6.5-1 3.3-6 8.5-7 7.3-4 4.5-7 4.5-6 4.4-8 9.4-2 2.8-3 2.5-1 2-4 1.6v2.9l-3 7.3h-2l-2 7.3 1 2 3 3.7-1 8.9 1 2.9 2 3.6 3 2.9v4.4l1 8.2-1 4.4 2 6.5-2 4.3-4 6-3 1-7 3-3 2-5 7-4 1-3 4-1 5 1 2 3 11-1 4v3l-1 2-8 4-4 2-2 3 2 5-4 10-5 6-5 8-8 9-5 5-4 4h-8l-5 4h-19l-9 4-5-8-4-4h2l1-5-1-4-5-8-2-8-2-3-4-3-2-4-3-9v-6l-2-4v-9l-5-10-5-10-4-7v-11l1-2 2-4.3v-7.3l5-4.5 3-4.4V965l-3-5.7-1-4.4 2-3.7-6-12.2 4-1.6-4 .8-1-1.6-1-3.7-1-2.8-4-2.9-3-3.6-4-3.7-2-3.6-3-6.1 3-2.1v-5.3l2-2-2-.8 2-4.5v-2l1-3.7-2-4.4-3-1.2-2-3.7-2 1.2h-6l-1 .8-4 .8-4-2.8v-3.2l-5.8-4.9-4-.8-4.5.8-6.1.8h-2l-1.7 1.2-3.6.8-5.7 2.9-4.5.8-1.2 1.6-5.3-1.6-8.9-1.6-7.3 1.6-8.6 3.6-8.9-3.6-6.5-5.7-5.3-3.3-.4-1.2-5.3-2.4-2-3.7-2.4-2v-2.9l-1.3-4.4-3.6-1.6-4.5-4.1-2.4-1.6v-2.9h-2.9l-3.6-3.6v-3.7l.8-2.8-2.8-7.4 2.8-4.4v-2.5l.8-2.8 2-6.5v-3.7l-1.2-3.6.4-6.5-1.2-2.5-3.6-.4.8-6.1 2.8-2.8 3.7-9.3 4.4-4.5.4-4.5 1.7-4.5 5.2-3.6 2.1-4.9 1.6-2.4 7.3-2.1 7.3-6.5 2.1-4.4-.9-2.9V729l2.9-4.5v-2.1l4.5-5.2 5.2-2.1 3.7-2.8 2.8-4.5 2.1-6.5 3.2-.8.4 2 3.3 2.5h4.9l8.1.8h2l3.7-3.7 5.3-.8 1.6-2.4 5.7-2.9h6.5l2.4-1.2 10.2-.8 3.3 1.2 5-2.8 3 1.6 2-1.6 7 .8 6-2 2 .4 2 8.9 3 1.6v2.9l-3 4.4-3 2.1 1 2 6 4.5h1l5 2.4 5-.8 10 3.7 2 5.7 2 .8 8 1.6 4 2 4 2.9 3-.8 3-4.9v-4.5l3-4.5 5-2 4 .8 5 1.2v2.5l4 1.2 5 .8 2 1.6 11 2.1 3 1.6h3l3 1.2 2-.8 5-2.8h7l2 2.4h9l3-1.6 1-1.7 3-9.3 5-10.2-1-7.3v-3.6l2-1.7-1-2-3 2-5-1.2-3 3.7-6 1.2-4-3.7-4-1.2h-4v2.9l-4 1.2-3-1.2-1-2.5-3-1.2-5-.8-1-2v-4.5l-5-1.6 2-6.5v-2.9l-4 .8v-3.2l4-3.7 5-.4 5 .4 2-1.2 1-4.5 11 .9 5-4.5 6-2 7 .4 4 1.6h3l2 3.6 3-.8 3 2.5 5 .4 6-1.2 3 1.2 7-2.9 1-1.2 1-3.2-2-5.7-8-4.5-5-5.7-8-3.6-4-4.5 4-1.6 2-4.1v-3.7l3-3.2-1-2-4 .8-4 2-5 .8-2 2.1-4 1.6v2.8l4 3.7 4-.8h2l-1 3.2-5-.8-1 1.2-5 1.6-2 2.9-2-.8v-4.9l-5-2.4 6-3.7-2-1.2h-6l-2-4.5h-3l-2 2.1-4 3.6-3 1.6 1 3.7-1 2.8-4 .8-1 7.4-1 2.8h-2l-2 5.3v1.2l2 3.7v6.9l-3 .4-2 2.4-2 .8-3 2.9-1-4.5-5-2-4 .4-3 3.6-3 1.7-3-1.7v2.5l1 2 1 7.3 5 2.9v4.4l-2-2-2 .8v2.9l-3-.9 3 5.3-5 .4-1-2-3 1.6v-4.4l-2-2.5 1-2.8 3-.8 5 2.4-1-2.4-4-.4h-4l-3-3.3v-1.2l-3-4.5-1-2-2-1.6-1-2.9 1-8.9h-1l-2-2.9-2-1.6-5-2.8v-.9l-4-2.8-5-2-4-3.7v-1.6l-1-2-1-3.7-2-1.6-2 2.4-1 1.2-2-4.8 1-.9-3-1.6-5 4.5 2 2-2 2.5 1 2.8 5 4.5 1 .8 2 6.5 5 4.5 2 .4h4v3.6l6 3.3 5 2.8 3 3.7-1 2-2-2.8-5-2.1-1 1.2-2 3.7 3 2.8v3.3l-3 1.2v2.5l-3 2.8h-2l3-7.3-3-6.5h-1l-2-2.5-1-2.8-4-.8-2-2.9h-3l-7-5.6-1-1.7-6-5.3-1-6.5-6-3.6-2-.8-4 4.4-3 .9v0l-5 4.4-3 .8-7.1-2.4-2.9-1.2-5.3 2.8-.8 2.1.8 2.8v4.5l-4.4 2.8-1.3 1.6-6.1 1.7-4.8 7.3-1.7 3.6 1.7 3.7 1.2 1.2-4.1 2.9-2.4 5.2h-1.2l-2.5 1.7-2.8 3.6h-11.8l-1.2 1.2-3.3.9-.4 2-1.6.8-2-1.2-3.3-5.3-4-1.6-2.5 1.6-4.4-.8-.5-2v-6.5l-3.6-2.5.4-4.5 1.6-1.2 2.1-10.1-1.3-6.1.8-.8-.8-1.3-1.6-7.3 4.5-1.6 2-2.8 3.7 1.6h8.9l7.3 1.2 3.7-.8 7.3 1.6 2-.8 1.6-2 1.7-7.3.4-10.2-.4-2.4-3.3-1.3-1.2-3.2v-1.2l-2.8-2.5-.9-2H951l-2-1.6h-3.7l-.8-3.7-2-.4 1.2-2.4 7.3-2.1 2.4 2.9 2.1-1.6 3.6.8v-4.9l-.8-3.7h2.5l1.2 2.1 6.9.8v-2.9l4.9-2.4 2.4-2 .4-6.1 5.3-1.2 4.5-2.9 4.4.4v-.4h-2.4l.8-3.2 2.8-5.7 5 1.6 2-2.4-2-2.9-2 2.1-1-2.9 5-4.5 5-.4 3 2.1v-3.7l4-.8 1 1.6 4-5.3v-2.8l-2-4.5V549l-3-1.3 1-2.8-1-2.4V538h2l5-4.1 3-.8 2 1.2v3.3l4 2-2 2-2 1.7-4 5.7-1 5.2 3 .9 1 2.8 4 1.6 3 3.7 1-2.5 3-.8 1-2h3l3 2.8h1l1 3.7 2 .8v-2l9-3.3 1-.4 2-2.4 4-1.2 6-1.7 1 3.7 2 .8 5-.8 1-4.5h6v-10.9l-1-2.1 1-5.3 1-2 2-5.3 4-1.2 4 3.7v2.8l2 .8 4-2.4V525l1-3.7-5-1.6v-2l-1-5.7 3-1.6 2-1.7 9-2 5 2 4 .8 2-.8 6-5.7-2-5.2-6-.4-10 2-3 1.6-11 4.1-3-5.7-2-.8-5-2.1v-2.8l1-4.5v-6.1l-2-2 1-2-1-3.3v-3.6l1-1.2 1-3.7 4-.8 2-5.3 3-2 4-6.5 2-1.7 1-3.6 5-1.2-1-3.3v-3.6l-7-4.1h-2l-3 1.2-4-2-2 5.7h-2v4.4l-2 1.7v3.6l2 2.1-3 3.6-1 3.7-3 2-4 1.6-2 2.9-4 3.6-2 5.3-2 1.2-2 11.8-1 5.3 1 2.8 4 .8 3 4.9 2 2.5v2l-3 2.8-7 .8 7 2.9-7 5.3-2 2v9.8l-1 3.6-3 8.5-3 .9-4-.9-1 2.5-1 4.9h-6v-2.9l-4-5.7 3-2.4-3-3.7-2-4.8-2-2.5 1-4.9-3-2.4-1-5.7h2v-1.6l-6-1.2v2h-3l-8 9.8-3 .4-4-.4-7-4.5v-5.3l-2-4.9 1-2.4h2l-1-4.5-2-2v-2l-1-8.2 3-10.1 3-2.5v-2.8l4-.8v-2.9h5l4-2.8v-2.9l6-2.4 2-6.5 2-2.8 5-2.5v-3.6l5-3.7 1-4-1-1.7 3-6.5 3-1.6-2-5.7 6-4.5 3-8.9 2-2.8 7-4.9v-6.9l4-1.2 2-5.3 2-.8 1-4.1 4-1.6 2-3.7 4-.8 1 2.4 5-1.6v-6.5l4-2.4 7 1.6 5-6.5 2-4.5 5-.8 2 1.6-4 5.7 2 2.9 6-9.4 1 .8-1 7.4 2-.9 3-8.9 3-1.2 4 3.6 5 2.1 6 4.4 1 2.9-8 5.3 1 2h6l4 2.4 2-4.4 6 4.9 1 4.4 11 .8 3 1.7 10 7.7 9 8.9 8 4.5 1 12.2-4 6.1-10 4.4-8-3.2-9-1.2-3-2.9-8-1.6v2l9 9-2 8.9 2 4.9-1 3.6 4 1.7 4 4.8 6 2.5 3-2.9-2-4.4h-3l-4-6.1 4-4.1 5 4.1 8 3.6 5-2.8-4-7.3 1-2.9 4-4.4 4-1.3 4-6.1 6 .9 4 5.2 3-8.1v-3.6l-5-4.5 2-5.7 1-12.6h5l4 .8 4 4.9v4.5l-7 1.6-2 4.9 3 3.2 2 4.1h6l3-2.1 2-8.9 5-1.2 9-7.3 17-10.2v4.1l2 6.9 6-4.5 8-2.4 3 1.6 3-4.5 6-2 4 4.9 7-3.7-5-10.9 5-3.7 13 3.2 3 2.1 9 6.5 7 3.6 6 7.3h2l3-7.3-3-2-3-6.1-6-5.7 3-15.4-4-.8 1-7.8 5-4.4 4-5.3 3-15.4 3-2.9 10-.8 7 3.7v7.3l-4 12.6 4 12.6-1 6.5-1 2 1 6.5-1 10.6 1 4.8 5 5.3-2 4.5v4.9l-3 3.6-1 3.7-5 9.7-5 1.2-4-4.4-4 3.2 7 3.7 10 .4v-2.9l7-4.4 2-6.5 4-4.9v-6.9l-2-2.9 1-4.8 9-4.5 6 7.3 1 5.7 3-2-3-9-5-4.4-6-1.3-4 2.1-6-1.2 1-4.5-1-3.7V373l4-6.1-4-11.7-3-2.9 3-6.5 7-5.7 3-10.9 1 8.5-3 8.1 1 7.3 6 2.9 4-2.1-5-5.2-1-4.5 5-2.9 3 3.7 1-6.5 5-2.8h4l12 11.7 6-1.6 1 6.5-4 2.4v4.1l5 2.4-1 8.6 4-2.1-3-12.5 3-6.5-5-4.5-3-6.5-5-1.2-3-3.7 1-7.3-2-11.8 5-.8 10-.8 18-4.5-2-11 1-4.8 6-5.3 7-10.2 25-9.3-1-3.3 10-2.8 8 5.3 12-9.8 2-2.8h5l4-2.9-2-6.5 2-5.2 11-13 6-.9 9 6.5-2 7.4 9 2.4zm-300 376.7-11 5.7-6 5.2h-3l-1 3.7-3 4.5 4 7.3v4.8l6 8.2 6 10.9-1 .9-4 10.1v6.1l3 2 3 .9 3 2.8 3 1.6 4 1.2 9-2 2 .8v-3.6l-1-8.2 1-2.8-1-1.6-3-5.7-2-2.5 2-2.8 3 .8 5-1.6 1-2-4-2.5-1-4h-4l-2 2.8-2-.8v-2l2-4.5-6-1.6-2-4.5-3-4.9-3-1.6v-2h3l1-2.5 2-2.8 6-.8 4-4.1-1-6.9-3-1.2-2 1.2zm-159 36.5-4 1.7 6-2.5zM470.8 224.3l-2.5 6.5-12.2-.4 1.2-7.3zM380 228l-10.2 6.1-6.6-5.3v-9.3l10.2-4.5h8.8zm717-2.9-1 4.5-7 5.7-3-5.7-6 1.2 3-11.3-3-6.1 10-2.9 2 6.5zm-11-15.4-5 2.4-6-7.3 10-3.2zm-713.3 0-8 .8-.8-2.8 14.7-11 5.8 7.3-.7 4.9zm86.3 8.1-9 4.5-4-6.1-3.3-11v-8.5l3.7-1.6L461 206zm1059-37.3-1 8.1 6-2.1 7 8.6v8.9l-8 5.7-14 2.8-6 5.3-2-5.3 10-32zM436.2 201.6l-1.2 7.3 4.9 6.9-5.7 6.5-3.7-2.4-2.4-7.8-11-5.2-7.3 2.8-1.2-8.1 4.9-4.1-1.2-6.9-8.2-2 .8-7.3 8.2-1.7 18.7 15.5zm625.8-37.8 7 13v8.9l14 8.6-1 4.4-9 1.7-3 4.4v9.4l-4 2v12.6l-3 .8-3 19.1-4 2.9-11-13.9-3-8.9 3-5.7v-5.3l7-9.3-3-7.3-4 7.7-8 1.6-6-10.1-2-9.8-4-15 3-8.2 10 2.9 2 5.7 5-9.4 6-.8 5-6.5zm406 1.2-6 6.1-8-5.3v-6.5l10 .8zm21-9.3 2 8.1 7-4.5 4 8.1-2 14.7 2 8.5-7 5.3-8-1.6-3-4.1-8-1.6-4-5.7v-6.1l-4-4.5 8-14.6zm-216-5.7v7.7l-8-.4 2-6.9zm-159 7.7-1 8.1-8 6.5 2 3.3-13 9.3-5-6.5-10 .8-11-9.7-3-5.7 1-8.1 18-.8 3 6V150l12 .4 6 4.5zm113-22.3-14 11.3-4-6.5zm74 .4-7 12.6-9-5.3 2-8.6 11-2.4zm-70 19.1-6 1.6v-6.1l8-10.2-2-4.8 9-3.7 4 5.7-4 6.5-7 1.6zm81-17.5-6 1.6-4-5.3 14-10.1 1 7.3zm-801 34.9 3.6 10.6-7.3 4.9-8.9 16.2-13 8.5-9.8-1.2-4-6.1-6.9-15 4.4-4.5 6.5-1.6-4-4.9-4.5 2.9h-7.3l-9-24.4 6.5-9.3-2-5.7 4.5-14.7 10.1-2.4 5.7-4.9 7.3 22.4 17.1 4.4.8 7.4 4.9 16.2zm969-18.3-12 6.9-2-8.1-10-.8 7-7.3-1-8.9 3-7.4 9-4 5-6.1 5 11.8 3 9.3v14.2zM727.5 84.2v5.6l-10.5-13-4.1-9.7 7.7-1.2 10.6 10.9zM603.6 53.3l24.4 5.3 3.7 10.9 8.1 4.1 2 8.1-6.5 9.8-11.8 11.3-.8 11-15.4 17.1-9.4 16.6-8.1 9-1.2 10.9-11 7.4-7.3 8.5-1.6 17.9-4.5 12.2-12.2 8.9-1.6 10.2-5.7 3.6 2 7.3 5.3-.8.4 6.5-15 11.8-3.3-8.5-7.7 3.6-8.1-1.6-5.3 3.7-11.8-2.9-9.3-.8-2-9.3 10.1-11.8-2.4-11.8 4.4-2 5.3 2.8 2.9 8.1 6.5 4.1-3.7-12.2-4.9-6.5-7.3-2.4V206l4.9-10.9 9.8-1.2 2-3.3-.8-12.2-4.9-8.9-6.1-2.1v-16.2l14.6 1.6 17.1-6.5-1.6-6.1-7.3 2.9-7.4-6.5-3.6 8.1-9.4-.8-10.9-4.9-6.1-5.3-5.7-10.9 2.8-5.3-10.9-11.4 8.1-9.8 9.3-6.5h9.8l11.4-15.4 8.9 8.9 4.5-17.4 14.6-13.4 6.5 5.2 11.8-8.9 12.2 5.3 8.1-7.3zm224.7-19.1 8.1 21.1 17.5 11.8-5.7 11.8-14.2 7.3-13.8-1.6-7.3 7.3 20.7.8-1.6 8.9 6.5 1.2.8-10.9 9.3-2.9 2.5 11.8 5.6 7.3 11 1.6 11-14.6h10.1l14.7 13-13.8 22-11 8.1 2.8 5.7-10.1 22.7-5.7.8-3.7 9.4 1.2 9.7-7.3 13.9-5.7 23.9 5.3-6.5 5.7 6.5-2 5.3 4 3.7h7l1.2 9.3-1.2 3.7-8.2-3.7-6.5 2.5-3.2 4.8v4.5l10.5 7.3 1.3 18.3-5.7 1.6-1.7 7.3 3.7 3.7 5.3 3.6-2.5 4.1h-2.8l-1.2-3.6h-6.9l-2.9 6.9 7.3 4 .9 8.1h-5.3l-2.9 4.5-6.5-2.8-2.8-3.7-7.3 2-3.7 5.3 5.7 2.9 2.8 11.8 10.6 8.5.4 7.3 3.3 3.2 1.2 9.4-4.5 4.5h-4.9l-5.2-6.1v-4.9l-2.9-3.7-3.6-.8-.9 2.9-4.4 3.6-7.3.8-2.1 9 7.3-1.7 2.9 4.5 3.6-2.8h3.7l7.3 4 2.5 3.7-3.7 5.3-14.2 13-14.7 4.4-1.2 2.5-8.9 2-4.9-.8-6.9 8.1-.4 3.7-3.2 3.6-.5 3.7-3.6 5.7-4.5.8-8.9 6.1-4.9-2.4v4.4l-8.9.8.8 4.5-4.5 7.3-1.6 12.2-4.9 9.8h-3.6l1.2 9.3-3.7 8.9v7.4l-1.2 4.8-5.3-1.2-2.8 2-2.9-2-4.4-7.3-7.4-.8-6.5-2.9-6.1-8.9-2.8-8.1-4.5-5.7-2-6.1.8-5.7-3.6-2.8v-10.2l-6.1-7.3-1.3-6.9 1.3-4.9-2.9-8.1 2.5-5.7.4-7.3h3.6l1.6-5.3 5.7-.8v-8.1l1.7-8.6-2.1-5.2-3.6.8-6.9-5.3-4.1-.4-3.2-4.5 3.2-2.8 7.7 2 3.7 3.6 6.9 2.1-3.7-7.7-3.6-3.3-4.5-8.5-6.1-2.9-.4 4.1-4.5 1.6-6.1-4.4 1.7-7.4 3.6-2.8-.8-4.5 2.4-6.5-4.4-4.4.8-5.7-3.7-5.3-1.6-7.3v-8.6l-3.7-5.2v-3.7l-4.4.8-.8-5.3-2.1-1.2.8-6.9-4.4-4.9-3.7-4.4-5.7-4.5h-16.2l-3.7-1.2-2 3.6-3.7.4-.8-3.6-2.4-2-2.9 7.3-8.5-2.9-6.9-6.1 3.7-4.8-9.4-5.3-3.6-4.9 2-4.5 8.9-.8 4.5-2.8h8.5l-1.2-8.2-2.4 3.7-8.6 2-6.1-2.8-2-5.7-6.5-2.4-5.3-7.4 1.7-9.3 16.6-8.1 2.5-4.5 7.7-4.1h6.1l8.1-10.9v-17.1h-11l-3.2-8.1 4.4-7.3 8.2-7.3 2-7.4 9.8-7.7 7.3 4.9 3.6-2.8.8-11-2.4-12.6 13.8-11 22-10.1 8.9 19.1 18.3-2.1-6.5-9.7-2.5-13h8.2l10.9 13 13.8 7.3 1.7-10.2 4.4-3.6-13.8-30.1 16.7-9.3 6.5 2 7.3 10.1 8.1.9 2.1-21.2 32.9-8.9 14.6 2.4z" style="fill:none;fill-opacity:1;fill-rule:evenodd;stroke:#000;stroke-width:2;stroke-linejoin:round;stroke-linecap:round;stroke-miterlimit:4;stroke-dasharray:none"/><text xml:space="preserve" x="1760" y="1267" style="font-style:normal;font-weight:400;font-size:24px;line-height:1.25;font-family:sans-serif;letter-spacing:0;word-spacing:0;fill:#000;fill-opacity:1;stroke:none"><tspan x="1760" y="1267" style="font-size:24px">(с) Fla-shop.com</tspan></text></svg>